<?xml version="1.0" encoding="UTF-8" standalone="no"?>
<svg
   xmlns:dc="http://purl.org/dc/elements/1.1/"
   xmlns:cc="http://creativecommons.org/ns#"
   xmlns:rdf="http://www.w3.org/1999/02/22-rdf-syntax-ns#"
   xmlns:svg="http://www.w3.org/2000/svg"
   xmlns="http://www.w3.org/2000/svg"
   viewBox="0 0 1771.65 525"
   height="525"
   width="1771.65"
   xml:space="preserve"
   version="1.1"
   id="svg2"><metadata
     id="metadata8"><rdf:RDF><cc:Work
         rdf:about=""><dc:format>image/svg+xml</dc:format><dc:type
           rdf:resource="http://purl.org/dc/dcmitype/StillImage" /></cc:Work></rdf:RDF></metadata><defs
     id="defs6"><clipPath
       id="clipPath38"
       clipPathUnits="userSpaceOnUse"><path
         id="path40"
         d="M 4699.27,770 0,770 l 0,39.711 4706.22,0 c -2.18,-13.031 -4.49,-26.25 -6.95,-39.711" /></clipPath><linearGradient
       id="linearGradient42"
       spreadMethod="pad"
       gradientTransform="matrix(4843.32,0,0,-4843.32,0,404.46)"
       gradientUnits="userSpaceOnUse"
       y2="0"
       x2="1"
       y1="0"
       x1="0"><stop
         id="stop44"
         offset="0"
         style="stop-opacity:1;stop-color:#656363" /><stop
         id="stop46"
         offset="0.6248555"
         style="stop-opacity:1;stop-color:#ffffff" /><stop
         id="stop48"
         offset="1"
         style="stop-opacity:1;stop-color:#ffffff" /></linearGradient><clipPath
       id="clipPath56"
       clipPathUnits="userSpaceOnUse"><path
         id="path58"
         d="m 4843.32,770 -144.05,0 c 2.46,13.461 4.77,26.68 6.95,39.711 l 137.1,0 0,-39.711" /></clipPath><linearGradient
       id="linearGradient60"
       spreadMethod="pad"
       gradientTransform="matrix(4843.32,0,0,-4843.32,0,404.46)"
       gradientUnits="userSpaceOnUse"
       y2="0"
       x2="1"
       y1="0"
       x1="0"><stop
         id="stop62"
         offset="0"
         style="stop-opacity:1;stop-color:#656363" /><stop
         id="stop64"
         offset="0.6248555"
         style="stop-opacity:1;stop-color:#dedede" /><stop
         id="stop66"
         offset="1"
         style="stop-opacity:1;stop-color:#dedede" /></linearGradient><clipPath
       id="clipPath74"
       clipPathUnits="userSpaceOnUse"><path
         id="path76"
         d="M 4843.32,0 0,0 l 0,39.6992 4836.01,0 1.38,-20.3008 5.93,0 0,-19.3984" /></clipPath><linearGradient
       id="linearGradient78"
       spreadMethod="pad"
       gradientTransform="matrix(4843.32,0,0,-4843.32,0,404.46)"
       gradientUnits="userSpaceOnUse"
       y2="0"
       x2="1"
       y1="0"
       x1="0"><stop
         id="stop80"
         offset="0"
         style="stop-opacity:1;stop-color:#656363" /><stop
         id="stop82"
         offset="0.6248555"
         style="stop-opacity:1;stop-color:#ffffff" /><stop
         id="stop84"
         offset="1"
         style="stop-opacity:1;stop-color:#ffffff" /></linearGradient><clipPath
       id="clipPath92"
       clipPathUnits="userSpaceOnUse"><path
         id="path94"
         d="m 4843.32,19.3984 -5.93,0 -1.38,20.3008 7.31,0 0,-20.3008" /></clipPath><linearGradient
       id="linearGradient96"
       spreadMethod="pad"
       gradientTransform="matrix(4843.32,0,0,-4843.32,0,404.46)"
       gradientUnits="userSpaceOnUse"
       y2="0"
       x2="1"
       y1="0"
       x1="0"><stop
         id="stop98"
         offset="0"
         style="stop-opacity:1;stop-color:#656363" /><stop
         id="stop100"
         offset="0.6248555"
         style="stop-opacity:1;stop-color:#dedede" /><stop
         id="stop102"
         offset="1"
         style="stop-opacity:1;stop-color:#dedede" /></linearGradient></defs><g
     transform="matrix(1.25,0,0,-1.25,0,841.9125)"
     id="g10"><g
       transform="scale(0.1,0.1)"
       id="g12"><g
         id="g34"><g
           clip-path="url(#clipPath38)"
           id="g36"></g></g><g
         id="g52"><!--<g
           clip-path="url(#clipPath56)"
           id="g54"><path
             id="path68"
             style="fill:url(#linearGradient60);fill-opacity:1;fill-rule:nonzero;stroke:none"
             d="m 4843.32,770 -144.05,0 c 2.46,13.461 4.77,26.68 6.95,39.711 l 137.1,0 0,-39.711" /></g>--></g><g
         id="g70"></g><g
         id="g88"><g
           clip-path="url(#clipPath92)"
           id="g90"><path
             id="path104"
             style="fill:url(#linearGradient96);fill-opacity:1;fill-rule:nonzero;stroke:none"
             d="m 4843.32,19.3984 -5.93,0 -1.38,20.3008 7.31,0 0,-20.3008" /></g></g><path
         id="path106"
         style="fill:#f2f7f8;fill-opacity:1;fill-rule:nonzero;stroke:none"
         d="m 13867.8,3740.11 c -94.4,14.91 -216.8,-42.83 -301.3,-1.83 -76.4,37.09 -136,71.15 -220.7,88.45 -88.6,18.1 -183,30.17 -273.2,20.44 -29.8,-3.21 -53.6,-16.01 -67.3,-40.94 -167.5,46.3 -322,161.64 -469.1,247.68 -199.4,116.64 -391.5,247.19 -602.5,342.17 -23.7,10.66 -54.8,17.5 -78,0 -32.2,-24.37 -53.5,-13.64 -83.8,3.42 -4.1,5.88 -9.2,11.57 -15.7,16.91 -112.4,91.92 -248.9,159.11 -388.3,197.86 -52.8,14.68 -103.1,-5.94 -154.7,4.51 -84.5,17.06 -143.9,11.75 -215.4,-39.79 -68.3,-49.19 -126.7,-91.26 -202.8,-127.95 -91.5,-44.1 -178.4,-98.03 -264.6,-151.63 -161.3,-100.18 -323.8,-246.09 -510,-292.38 -3.9,-0.98 -7.3,-2.48 -10.8,-3.86 -34.83,-3.12 -70.08,-5.19 -106.01,-5.88 -42.59,21.32 -83.21,46.2 -126.15,66.95 -41.4,20.01 -78.81,8.31 -105.67,-28.01 -41.71,-56.37 -69.54,-96.23 -133.2,-128.16 -83.72,-41.99 -140.51,-44.57 -232.31,-37.75 -121.36,9.04 -297.25,-17.95 -311.97,-167.19 1.79,0.19 3.26,0.3 4.59,0.39 -2.55,-1.95 -5.12,-3.87 -7.66,-5.82 -2.08,-0.65 -4.33,-1.32 -6.9,-2.07 -13.9,-5.48 -27.82,-10.89 -41.79,-16.2 -29.61,-11.38 -59.25,-19.29 -90.34,-25.75 -97.37,-20.24 -206.58,-0.56 -304.48,6.72 -93.73,6.97 -184.6,3.2 -276.55,-16.78 -101.18,-22.01 -184.3,-57.9 -288.64,-26.99 -42.98,12.74 -88.68,-17.9 -96.49,-60.94 -16.35,0.37 -32.57,4.58 -48.45,7.93 -31.16,6.58 -61.64,15.94 -93.2,20.48 -113.32,16.35 -222.21,37.89 -337.16,19.52 -122.92,-19.64 -238.87,-8.37 -359.93,-45.75 -9.32,-2.87 -18.62,-5.61 -27.92,-8.38 -216.06,-11.15 -431.43,-17.43 -648.31,-22.19 -8.61,-0.18 -17.32,-0.3 -26,-0.42 -192.53,42.33 -389.94,83.14 -561.94,-3.48 -45.02,-22.68 -77.31,-59.88 -108.26,-98.01 -100.5,-51.64 -192.8,-109.38 -290.52,-156.58 -56.45,-9.19 -110.98,-21.13 -160.56,-57.3 -251.7,125.38 -496.9,64.8 -794.58,26.5 -67.98,-8.75 -132.17,-32.15 -197.11,-53.22 -13.71,-4.44 -27.5,-8.05 -41.33,-11.33 -152.5,-5.56 -305.51,-19.05 -457.64,-18.7 -65.4,2.68 -130.77,6.39 -196.08,10.07 -42.25,4.66 -84.38,11 -126.37,19.83 -141.76,29.85 -280.62,70.41 -424.39,90.15 -154.95,21.29 -302.12,14.47 -456.48,-7.86 -134,-19.37 -266.4,-48.19 -396.15,-86.2 -48.71,-5.18 -97.33,-10.7 -145.45,-18.31 -112.47,-17.8 -224.14,-40.5 -335.32,-65.44 -119.27,-1.81 -238.4,-7.42 -357.42,-15.65 -175.54,27.47 -364.601,-2.79 -536.39,-17.33 C 503.809,3042.41 244.688,3084.52 0,2985.94 l 0,-212.38 14173.2,0 0,888.87 c -103.8,18.55 -201.1,61.2 -305.4,77.68" /><path
         id="path108"
         style="fill:#d8e9f0;fill-opacity:1;fill-rule:nonzero;stroke:none"
         d="m 11724.9,3747.1 c -7.7,7.47 -22.4,8.27 -31,10.3 -19.8,4.63 -9.3,24.87 -20.5,35.24 -39,36.24 -113.8,35.64 -141.8,80.64 -19.8,31.91 -18.3,40.17 -53.4,54.52 -27.5,11.25 -16.6,-2.4 -39.7,21.01 -27.9,28.14 -82.7,24.46 -117.5,24.46 -20.9,0 -25.6,25.72 -46.6,28.36 -39.3,4.95 -58,41.02 -95.5,49.8 -3.2,0.77 -6.2,0.64 -8.9,0.01 -9.8,2.49 -20.9,1.56 -33.5,-3.27 -23.1,-8.81 -13.1,-46.57 10.3,-37.64 16.7,6.4 44.2,-45.16 66.9,-53.56 25.1,-9.29 42.4,9.68 47.5,-28.42 2.8,-20.8 18.6,-38.68 33.3,-52.08 19.1,-17.48 22.3,-20.2 22.3,-45.98 0,-8.83 2.6,-21.79 11.4,-26.21 21.2,-10.66 44.9,-10.62 68.3,-7.75 4,-2.22 8.9,-4.11 16.8,-7.23 5.8,-2.31 14.8,0.22 18.8,5.02 8,9.74 41.6,-25.06 64.2,-37.06 25.1,-13.41 98.5,-5.5 106.5,-34.82 2.8,-10.36 8.1,-24.36 19.7,-27.49 43.9,-11.92 73.4,-29.13 111.2,-53.34 12.3,-7.89 29.3,2.37 29,16.85 -0.7,39.39 -9.6,61.46 -37.8,88.64" /><path
         id="path110"
         style="fill:#d8e9f0;fill-opacity:1;fill-rule:nonzero;stroke:none"
         d="m 11427.4,4437.96 c -5.6,14.25 -20.5,18.56 -32.3,8.61 -7.3,-6.11 -13.8,-12.35 -20.2,-18.86 -6.1,9.03 -11.9,18.26 -17.1,27.93 -4.8,8.33 -17.7,13.22 -26.1,7.1 -18.1,20.89 -38.1,33.97 -60.3,19.75 -24.6,23.69 -48.4,32.18 -81.6,9.42 -2,-1.38 -3.5,-2.99 -4.8,-4.69 -5.9,5.41 -9.2,17.49 -13.8,23.72 -22.3,30.18 -63.3,22.1 -92.6,12.23 -23.5,-7.91 -13.5,-45.62 10.2,-37.65 22.2,7.45 51.2,9.8 59.1,-18.42 1.7,-6.1 5.4,-12.91 9.8,-17.4 10.2,-10.23 30.2,-14.83 43.2,-7.91 38.5,20.63 48.9,-19.06 80.4,-27.84 7.4,-2.05 16.8,-2.64 24.2,-0.51 26.1,7.54 13.9,-29.85 13.1,-42.49 -0.4,-7.8 6.2,-17.66 14.2,-18.82 54.2,-7.87 119.7,21.27 94.6,85.83" /><path
         id="path112"
         style="fill:#d8e9f0;fill-opacity:1;fill-rule:nonzero;stroke:none"
         d="m 12025.4,3973.35 c -4.7,0.67 -9,-0.05 -12.7,-1.73 -10.2,5.46 -23.2,10.31 -36.6,12.84 -3,2.18 -5.9,4.08 -8.7,5.16 -18.2,7.07 -25.6,-0.86 -31.6,22.16 -2.6,10.3 -13.7,16.39 -23.7,13.62 -7,-1.94 -14,-4.14 -20.9,-6.43 -3.8,3.72 -8.1,7.14 -12.8,10.44 -34.7,45.61 -80.9,79.07 -121.3,121.11 -5.3,5.52 -12.9,6.39 -19.5,4.17 l -3.8,30.83 c 0.2,13.71 -12.3,20.69 -23.4,18.49 -6.9,6.42 -18.5,5.09 -25.3,-1.17 -3.3,8.98 -6.6,17.94 -9.9,26.91 -1.3,3.3 -3.1,5.78 -5.2,7.83 -3.7,8.91 -9,19.84 -15.3,31.42 11.7,-3.17 22.9,-6.22 33.9,-16.75 13.7,-13.14 23.2,-29.15 38,-41.5 7.3,-6.11 14.8,-7.02 23.4,-3.04 1.7,0.79 14.4,-5.71 12.8,-3.17 6.4,-6.21 11.4,-14.11 18.5,-19.81 3.7,-2.99 7.9,-4.59 12.1,-5.03 1.3,-1.61 2.7,-3.09 4,-4.73 4.4,-5.53 10.1,-6.99 15.5,-5.9 3.6,-14.58 8.8,-28.69 14.9,-44.04 4.5,-11.35 16,-15.38 25.2,-12.59 12.9,-18.3 28.3,-35.03 44.1,-51.34 3.3,-3.36 7.6,-4.99 12.1,-5.33 3,-5.55 6.6,-11.08 10.7,-16.75 5.7,-7.83 16.1,-11.45 24.5,-8.06 2.8,-7.16 6.4,-14.21 10.9,-21.22 7.6,-11.86 24.3,-12.22 32,-1.81 6.8,-12.33 21.2,-13.34 29.7,-5.11 4.2,-4.76 9,-9.88 15.3,-16.54 10,-10.53 28.7,-5.48 32.3,8.6 l 0.2,1.23 c 2.1,-3.04 4,-6.09 6.3,-9.14 5.8,-7.59 15.9,-10.18 24,-7.77 0.8,-1.15 1.8,-2.2 2.7,-3.32 -24.4,2.56 -43.4,-6.72 -72.4,-2.53 z m 1607.3,-343.57 c -102.6,45.14 -213,70.8 -324.5,81.45 -29.5,6.72 -59.2,9.07 -89.9,9.17 -1.2,3.78 -3.5,7.36 -7.2,10.22 -13.2,10.14 -23.9,20.28 -34.8,32.75 -7.3,8.38 -19.7,6.62 -27.3,0 -23.5,-20.61 -33.4,-16.51 -59.9,-5.81 -17.1,6.89 -34.1,15.25 -52.1,19.38 -21.5,4.96 -36.3,-5.01 -46.4,-20.25 -20.2,19.68 -43.3,31.64 -72.2,38.95 -34.6,8.76 -61.2,37.4 -96.8,41.76 -30.2,3.71 -62.8,-1.81 -91.9,-14.74 -8.9,1.55 -19.2,1.53 -29.7,1.01 -8.9,4.05 -16.1,7.37 -20.4,9.09 -25.5,10.35 -64.4,42.42 -91.1,46.24 -19,2.73 -40.4,-1.8 -55.8,11.25 -5.9,4.97 -12.4,5.47 -18.3,3.71 -9.8,7.82 -19.9,14.3 -30.6,19.73 -2.8,6.01 -8,10.91 -16.3,11.56 -33.4,2.64 -55.5,26.78 -79.6,46.33 -8.9,7.17 -18.9,6.84 -25.9,0.58 -5.5,3 -10.9,6.02 -16.6,8.98 -2.7,1.33 -5.1,2.29 -7.6,3.08 -0.5,1.02 -1.1,1.89 -1.6,2.93 -4.1,8.18 -13.6,10.55 -21.8,8.97 -22.3,-4.29 -54.2,51.64 -75.2,63.1 -6.3,3.42 -13.3,2.79 -20.2,3.05 -5.7,-0.55 -11.1,-1.76 -16.5,-3.62 l -1.7,-0.51 c -3,3.75 -5.9,7.61 -9.2,11.04 -8.1,8.36 -18.7,6.95 -25.7,0.67 -18.4,7.87 -36.8,13.49 -58.3,19.2 -48.3,12.77 -35.4,53.84 -71.2,71.02 -49,23.5 -71.1,-18.43 -114.8,35.99 -50.1,62.44 -86.4,63.2 -157.9,95.72 -52.5,23.87 -80.8,49.57 -118.7,91.66 -23.9,26.67 -58.8,37.41 -88.1,56.42 -13.6,8.81 -34.4,-5.88 -28.4,-22.04 3.8,-9.98 7.9,-19.64 11.9,-29.35 -1.5,-2.01 -3,-3.99 -4.5,-6.03 -1.1,3.09 -2.7,5.77 -4.9,7.82 -3.1,6.54 -6.3,13.04 -9,19.84 -6.8,14.8 -32.6,11.59 -35.3,-4.67 -5.7,-34.07 -6.1,-64.8 3.2,-98.23 2,-7.03 6.8,-11.33 12.4,-13.07 -0.1,-1.52 -0.1,-2.97 -0.2,-4.51 -1.6,-15.6 17.3,-23.16 29,-16.85 7.1,3.79 13.7,7.98 20.3,12.09 4.6,-6.16 9.5,-12.4 14.8,-18.67 0.1,-3.03 0.1,-6.04 0.2,-9.1 0.5,-12.85 9.6,-18.86 18.9,-18.58 0.4,-0.98 0.7,-1.81 1.1,-2.89 3.7,-9.14 12.4,-14.52 20.8,-14.01 4.2,-4.38 8.3,-8.61 12.3,-12.76 8.2,-36.49 6.1,-131.62 60.4,-130.69 20.4,0.34 43,5.61 62.8,10.28 10.6,2.49 23.8,-2.81 36.4,-11.83 7.9,-7.13 15.5,-14.52 23.2,-21.79 6.6,-7.88 11.9,-16.17 15.2,-23.8 l 0.4,-1.1 c 1.4,-3.64 2.4,-7.14 2.8,-10.32 1.7,-15.99 18.4,-21.6 29.3,-16.92 0.9,-1.31 1.8,-2.69 2.8,-4.01 -5.9,-13.03 2.5,-30.82 17.9,-27.74 9.3,-10.8 29.8,-7.42 33,7.69 0.2,1.24 0.2,2.33 0.4,3.51 l 0.9,0.28 c 3.1,-6.81 7,-12.55 12.1,-17.08 -8.1,-17.5 3.9,-34.61 15.4,-47.37 3.4,-3.69 7.9,-5.74 12.7,-7.22 -45.8,4.2 -89.3,-19.71 -113.6,49.6 -13.6,38.55 -27.7,98.68 -79.1,100.79 -55.3,2.26 -99.2,-32.31 -125.6,41.65 -10.7,30.05 -15.8,66.99 -39,91.04 -21.2,22 -40,30.03 -69,38.71 -44.8,13.43 -57.7,60.09 -95,81.52 -43.5,24.99 -63.4,-41.12 -63.4,-69.98 0,-4.26 1.3,-7.52 3.2,-10.34 0.2,-1.52 0.1,-2.95 0.7,-4.61 11.8,-31.86 19.6,-82.46 61.9,-84.69 8.1,-0.44 16,0.57 23.8,-2.12 3.4,-0.92 6.8,-0.92 10.2,0 4.2,0.74 6.1,0.6 6.6,1.07 6.7,-13.33 4.2,-37.04 6.9,-50.9 1.5,-7.36 5.9,-11.28 11.1,-12.94 4.9,-24.05 18.8,-37.65 46.2,-49.09 32.5,-13.54 55.3,-23.07 72.5,-42.01 5.7,-8.18 11.2,-16.47 16.6,-24.88 3.9,-7.87 7.4,-16.84 10.6,-27.38 8.9,-28.89 17.7,-55.99 32.5,-82.27 27.5,-48.65 91.5,-53.11 139.7,-60.11 45.3,-6.58 72.8,-68.88 110.9,-93.63 22.6,-14.64 78.4,1.47 96.7,3.85 l 1.4,0.47 c 15.7,-9.35 35.8,-14.5 60.3,-17.4 29.8,-3.53 105.4,-8.35 90.7,45.42 -5.1,18.73 -24.9,30.42 -42,38.69 -4.2,8.25 -11.6,15.31 -22.9,19.27 -23.6,8.23 -45.4,19.05 -66.4,30.82 -8.2,10.25 -14.8,23.86 -20.1,43.32 -6.1,22.4 -29.1,37.51 -49.6,43.22 l -0.2,0.03 c 15.9,-1.23 31.9,-0.98 36.6,-13.84 4.5,-12.43 16,-16.2 26.6,-11.41 7.5,-3.09 16.7,-2.08 23.2,5.22 0.3,-3.86 0.8,-8.09 1.7,-13.33 2.5,-15.84 22.4,-16.97 32.2,-8.6 3.2,2.68 6.3,5.2 9.3,7.71 1.1,-8.41 2.2,-16.74 3.5,-25.13 2,-12.47 16.3,-16.41 26.7,-12.31 1.4,-1.79 2.9,-3.56 4.2,-5.37 7.7,-9.98 27,-15.16 33.4,0 l 0,0.03 1.9,-1.55 c 4,-23.09 12.5,-44.9 22.7,-66.8 7.3,-15.81 25.8,-10.61 32.9,1.42 5.9,-6.35 11.8,-12.63 18.4,-18.38 9.7,-8.56 29.7,-7.08 32.2,8.62 0.7,4.44 1.2,8.79 1.4,13.06 5,-1.49 9.8,-3.23 14.6,-5.21 -15.9,-11.66 -5.9,-41.84 15.6,-34.5 0.3,0.1 40.2,3.88 77.5,4.48 20.4,-4.45 41.4,-6.49 62.7,-7.93 l 0,-0.01 c 11,-14.15 30.5,-6.75 47.7,-3.2 11.2,-0.93 22.4,-2.08 33.5,-3.82 50.5,-7.89 61.6,-48.87 100.5,-70.51 14.7,-8.18 62.7,-17.03 71.4,-30.42 7.5,-11.39 20.3,-11.92 30.4,-3.94 9.2,7.3 16.5,12.96 22.4,17.29 l 0.6,0.1 c 10.2,1.59 20.3,2.19 30.2,2.29 4.4,-8.5 10.8,-21.59 30.8,-33.4 19.9,-11.84 35.4,-1.32 47.6,13.04 20.1,-18.79 30.5,-40.72 55.1,-34.02 1.6,-3.41 3.6,-6.64 5,-10.16 4.3,-9.62 18.1,-12.07 26.4,-7 4.5,2.74 23.5,-19.58 31.2,-22.66 23.8,-9.59 39.6,-6.18 64,1.17 23.8,7.18 13.7,44.86 -10.3,37.65 -29.9,-7.66 -51.5,0.42 -64.9,24.26 -4.9,5.7 -13.6,6.79 -20.5,4.15 l -2.6,2.55 c -1,1.84 -1.8,3.82 -2.8,5.62 -3,5.41 -8.8,8.54 -14.9,9.23 -17.8,13.57 -36.6,23.72 -56.8,31.29 -1.1,0.9 -2.2,1.84 -2.8,2.26 -3.5,2.25 -7.2,2.65 -10.9,2.31 -15.8,4.91 -32.6,8.59 -50.5,11.24 -6.7,9.63 -12.3,19.08 -15.2,22.45 -6.6,7.78 -20.6,7.46 -27.3,0 -4.2,-4.72 -9.4,-9.67 -15,-14.67 -48.1,7.48 -110,21.6 -113.6,48.34 -1.1,8.15 -10.9,14.75 -18.6,14.34 -21.8,-1.17 -33.8,20.47 -52.8,25.33 -38,9.69 -79,22.27 -117.8,26.72 -26.8,3.06 -53.5,4.08 -79.8,10.28 -29.2,6.9 -21.3,30.14 -42.5,48.72 -29.6,25.9 -76.3,52.84 -111,68.71 -6.9,3.15 -13.6,6.99 -20.2,11.12 9.8,4.06 16.6,15.2 9.5,27.18 -7.9,10.8 -14.6,22.24 -20.7,34.02 24,-11.28 43.1,-25.8 45.8,-47.12 2,-15.34 17.9,-24.04 29.6,-16.4 14,-20.5 28.5,-37.36 54,-49.25 6.9,-3.21 15.4,-2.92 21.4,1.16 1.1,-1.44 2.3,-2.9 3.7,-4.62 3.6,-4.5 8.7,-6.16 13.8,-5.8 1.1,-1.75 2.4,-3.52 3.7,-5.27 -4.7,-16.77 16.9,-29.99 30.4,-19.45 3.5,1.23 6.6,3.29 9.1,5.89 l 49,8.33 c 1.3,-1.03 2.7,-1.96 4.1,-3.01 12.8,-9.43 28.2,3.8 29.3,16.94 10.3,-5.65 20.7,-11.57 31.8,-16.94 5.2,-2.5 10.6,-2.32 15.3,-0.65 26.9,-17.42 46.1,-7.36 81.3,-25.06 0.3,-35.49 20.9,-53.74 54.9,-52.71 5.1,-8.26 10,-16.78 15.4,-25.21 8.3,-12.93 24.9,-12.14 33.3,0 6,8.56 13,15.66 20.5,21.67 5.8,-2.38 12.2,-4.99 19,-7.69 3.7,-2.58 7.6,-4 11.9,-4.5 27.5,-10.15 59.4,-18.96 85.7,-14.08 7,-3.08 15.5,-2.61 20.8,3.91 3.1,3.68 6.1,7.36 9.1,11.04 2,1.88 3.8,3.94 5.6,6.21 35.6,-18.29 73.8,-18.04 102.9,-53.03 6.2,-7.54 14.1,-7.78 20.5,-4.29 8.5,-0.91 17.7,2.64 21.4,12.9 10.2,28.53 75.8,-12.15 94.4,-16.51 18.9,-4.42 35.2,3.97 49.7,14.97 6.1,-5.96 12.5,-11.75 19.1,-17.16 -2,-7.7 0.2,-16.56 6.6,-21.29 3.1,-3.99 7.8,-6.79 14.3,-6.87 31,-0.41 62.1,-2.07 93.2,-4.71 29.6,-6.61 58.2,-17.64 86.9,-34.92 42.9,-25.75 87.8,-19.06 135.3,-25.45 5.4,-0.72 9.5,0.66 12.4,3.22 14.5,-6.16 21,-26.76 28.9,-39.1 4.3,-6.86 13.5,-12.13 21.8,-8.97 13,4.98 24,11.69 34.2,21.29 1.9,1.77 3,3.7 4,5.65 20.3,-3.65 35.8,25.47 14.7,34.77" /><path
         id="path114"
         style="fill:#57752b;fill-opacity:1;fill-rule:nonzero;stroke:none"
         d="m 7235.74,2776.14 505.73,0 0,1510.78 -505.73,0 0,-1510.78 z" /><path
         id="path116"
         style="fill:#57752b;fill-opacity:1;fill-rule:nonzero;stroke:none"
         d="m 1196.21,2776.14 485.258,0 0,1598.74 -485.258,0 0,-1598.74 z" /><path
         id="path118"
         style="fill:#91a3b9;fill-opacity:1;fill-rule:nonzero;stroke:none"
         d="m 1409.54,2776.14 485.27,0 0,1838.73 -485.27,0 0,-1838.73 z" /><path
         id="path120"
         style="fill:#57752b;fill-opacity:1;fill-rule:nonzero;stroke:none"
         d="m 2009.54,2776.14 951.93,0 0,1468.73 -951.93,0 0,-1468.73 z" /><path
         id="path122"
         style="fill:#57752b;fill-opacity:1;fill-rule:nonzero;stroke:none"
         d="m 3129.54,2776.14 651.93,0 0,1618.73 -651.93,0 0,-1618.73 z" /><path
         id="path124"
         style="fill:#57752b;fill-opacity:1;fill-rule:nonzero;stroke:none"
         d="m 4169.54,2776.14 381.93,0 0,2098.73 -381.93,0 0,-2098.73 z" /><path
         id="path126"
         style="fill:#57752b;fill-opacity:1;fill-rule:nonzero;stroke:none"
         d="m 4675.74,2776.14 485.727,0 0,2523.34 -485.727,0 0,-2523.34 z" /><path
         id="path128"
         style="fill:#57752b;fill-opacity:1;fill-rule:nonzero;stroke:none"
         d="m 5405.74,2776.14 545.73,0 0,1463.34 -545.73,0 0,-1463.34 z" /><path
         id="path130"
         style="fill:#57752b;fill-opacity:1;fill-rule:nonzero;stroke:none"
         d="m 6785.74,2776.14 385.73,0 0,1313.34 -385.73,0 0,-1313.34 z" /><path
         id="path132"
         style="fill:#91a3b9;fill-opacity:1;fill-rule:nonzero;stroke:none"
         d="m 7099.98,2776.14 251.488,0 0,1660.78 -251.488,0 0,-1660.78 z" /><path
         id="path134"
         style="fill:#57752b;fill-opacity:1;fill-rule:nonzero;stroke:none"
         d="m 7815.74,2776.14 385.73,0 0,1510.78 -385.73,0 0,-1510.78 z" /><path
         id="path136"
         style="fill:#57752b;fill-opacity:1;fill-rule:nonzero;stroke:none"
         d="m 6225.74,2776.14 485.73,0 0,1713.34 -485.73,0 0,-1713.34 z" /><path
         id="path138"
         style="fill:#91a3b9;fill-opacity:1;fill-rule:nonzero;stroke:none"
         d="m 3605.39,4531.96 0,44.93 -20.74,0 0,-44.93 -7.19,0 0,44.93 -20.74,0 0,-44.93 -7.21,0 0,44.93 -20.74,0 0,-44.93 -7.2,0 0,44.93 -20.74,0 0,-44.93 -7.19,0 0,44.93 -20.73,0 0,-44.93 -7.21,0 0,44.93 -20.73,0 0,-44.93 -7.2,0 0,44.93 -20.74,0 0,-44.93 -7.21,0 0,44.93 -20.73,0 0,-44.93 -7.2,0 0,44.93 -20.74,0 0,-44.93 -10.95,0 0,-1755.82 266.14,0 0,1755.82 -10.95,0" /><path
         id="path140"
         style="fill:#91a3b9;fill-opacity:1;fill-rule:nonzero;stroke:none"
         d="m 2795.62,4735.88 -60.42,0 0,17.29 -52.87,0 0,-17.29 -47.2,0 0,65.67 -151.06,0 0,-65.67 -160.49,0 0,-41.48 20.77,0 0,-1918.26 430.49,0 0,1918.26 20.78,0 0,41.48" /><path
         id="path142"
         style="fill:#4590AF;fill-opacity:1;fill-rule:nonzero;stroke:none"
         d="m 3192.47,4652.93 0,89.87 -52.36,0 -31.38,96.77 -147.06,0 -31.38,-96.77 -52.35,0 0,-89.87 -60.49,0 0,-1876.79 435.5,0 0,1876.79 -60.48,0" /><path
         id="path144"
         style="fill:#4590AF;fill-opacity:1;fill-rule:nonzero;stroke:none"
         d="m 4647.42,4687.49 0,120.97 -51.85,0 0,-86.41 -58.75,0 0,-34.56 -124.43,0 0,76.04 -72.59,0 0,-76.04 -41.47,0 0,-1911.35 411.3,0 0,1911.35 -62.21,0" /><path
         id="path146"
         style="fill:#4590AF;fill-opacity:1;fill-rule:nonzero;stroke:none"
         d="m 5487.37,5353.52 -21.23,0 0,15.28 -84.91,0 0,68.72 -46.72,0 0,-68.72 -4.25,0 0,22.89 -157.08,0 0,-22.89 -89.16,0 0,-2592.66 382.12,0 0,2508.65 21.23,0 0,68.73" /><path
         id="path148"
         style="fill:#91a3b9;fill-opacity:1;fill-rule:nonzero;stroke:none"
         d="m 6114.83,4656.4 0,23.06 -147.47,0 0,-23.06 -50.68,0 0,-1880.26 405.54,0 0,1880.26 -207.39,0" /><path
         id="path150"
         style="fill:#4590AF;fill-opacity:1;fill-rule:nonzero;stroke:none"
         d="m 6772.14,4849.44 -47.86,47.85 47.87,0 -0.01,-47.85 z m -313.99,0 -0.01,47.85 47.88,0 -47.87,-47.85 z m 355.16,-312.88 0,403.26 -76.1,0 0,27.35 -3.16,0 -118.92,118.93 -118.89,-118.93 -3.16,0 0,-27.35 -76.09,0 0,-403.26 -36.88,0 0,-1760.42 470.07,0 0,1760.42 -36.87,0" /><path
         id="path152"
         style="fill:#4590AF;fill-opacity:1;fill-rule:nonzero;stroke:none"
         d="m 7302.19,3644.83 0,59.91 -77.2,0 0,57.6 -10.74,0 0,23.05 -66.84,0 0,-23.05 -104.44,0 0,-57.6 -77.21,0 0,-59.91 -39.16,0 0,-868.69 414.76,0 0,868.69 -39.17,0" /><path
         id="path154"
         style="fill:#4590AF;fill-opacity:1;fill-rule:nonzero;stroke:none"
         d="m 7893.04,4031.94 0,25.36 -23.05,0 0,62.21 -110.61,0 0,29.95 -119.82,0 0,-29.95 -62.21,0 0,-1343.37 292.64,0 0,16.11 23.05,0 0,25.36 -23.05,0 0,24.25 23.05,0 0,25.34 -23.05,0 0,24.23 23.05,0 0,25.35 -23.05,0 0,24.23 23.05,0 0,25.36 -23.05,0 0,24.24 23.05,0 0,25.35 -23.05,0 0,24.23 23.05,0 0,25.35 -23.05,0 0,24.26 23.05,0 0,25.35 -23.05,0 0,24.22 23.05,0 0,25.35 -23.05,0 0,24.22 23.05,0 0,25.37 -23.05,0 0,24.25 23.05,0 0,25.34 -23.05,0 0,24.22 23.05,0 0,25.36 -23.05,0 0,24.22 23.05,0 0,25.36 -23.05,0 0,24.24 23.05,0 0,25.36 -23.05,0 0,24.22 23.05,0 0,25.36 -23.05,0 0,24.25 23.05,0 0,25.35 -23.05,0 0,24.22 23.05,0 0,25.36 -23.05,0 0,24.22 23.05,0 0,25.35 -23.05,0 0,24.26 23.05,0 0,25.35 -23.05,0 0,24.22 23.05,0 0,25.36 -23.05,0 0,24.22 23.05,0 0,25.36 -23.05,0 0,24.25 23.05,0 0,25.35 -23.05,0 0,24.22 23.05,0 0,25.36 -23.05,0 0,24.25 23.05,0 0,25.35 -23.05,0 0,24.23 23.05,0 0,25.35 -23.05,0 0,24.22 23.05,0 0,25.35 -23.05,0 0,24.25 23.05,0" /><path
         id="path156"
         style="fill:#141613;fill-opacity:1;fill-rule:nonzero;stroke:none"
         d="m 7546.96,3285.93 0,12.23 -78.52,0 0,34.67 -244.8,0 0,-20.38 -87.75,0 0,-26.52 -30.02,0 0,-509.79 512.69,0 0,509.79 -71.6,0" /><path
         id="path158"
         style="fill:#4590AF;fill-opacity:1;fill-rule:nonzero;stroke:none"
         d="m 6033.41,2776.14 -460.85,0 0,1659.04 460.85,-396.31 0,-1262.73" /><path
         id="path160"
         style="fill:#4590AF;fill-opacity:1;fill-rule:nonzero;stroke:none"
         d="m 1935.01,4925.99 0,38.03 -93.32,0 0,-38.03 -279.96,0 0,-34.56 -27.66,0 0,-69.12 27.66,0 0,-2046.17 445.87,0 0,2149.85 -72.59,0" /><path
         id="path162"
         style="fill:#141613;fill-opacity:1;fill-rule:nonzero;stroke:none"
         d="m 6992.02,3079.85 -357.43,337.55 -348.14,85.54 -194.96,-291.12 1.33,-55.7 114.06,-55.05 1.98,-130.63 -117.37,-141.24 -15.24,-53.06 787.56,0 2.88,38.47 96.82,34.47 1.99,45.09 27.85,56.37 -1.33,129.31" /><path
         id="path164"
         style="fill:#141613;fill-opacity:1;fill-rule:nonzero;stroke:none"
         d="m 4950,5560.66 c 11.44,133.59 24.71,280.31 39.8,444.89 7.76,0.3 15.4,0.61 22.84,0.95 -26.11,-165.09 -46.8,-312.09 -62.64,-445.84 z m -39.17,-33.11 0,475.88 c 14.51,0.23 28.67,0.55 42.49,0.94 -16.27,-177.66 -30.47,-334.68 -42.49,-476.82 z m 36.49,-1231.12 -26.43,0 0,277.79 c 6.66,-89.76 15.6,-181.15 26.43,-277.79 z m 26.05,-217.32 -52.48,0 0,169.03 31.96,0 c 6.32,-54.34 13.19,-110.54 20.52,-169.03 z m 27.66,-217.33 -60.01,0 0,169.03 38.42,0 c 6.84,-54.09 14.07,-110.31 21.59,-169.03 z m 30.61,-241.48 -85.32,0 c -1.83,22.79 -3.6,45.23 -5.3,67.31 l 0,125.87 66.19,0 c 7.85,-61.47 16.01,-125.66 24.43,-193.18 z m 8.96,-72.44 -88.42,0 c -0.66,8.08 -1.32,16.14 -1.97,24.15 l 87.42,0 c 0.98,-8.02 1.98,-16.07 2.97,-24.15 z m 43.85,-374.28 -100.25,0 c -6.84,77.38 -13.24,151.02 -19.24,221.35 l 94.08,0 c 8.32,-70.33 16.81,-143.99 25.41,-221.35 z m 20.84,-193.18 -103.87,0 c -4.47,49.71 -8.78,97.95 -12.95,144.88 l 101.31,0 c 5.14,-46.93 10.31,-95.19 15.51,-144.88 z m -164.27,193.18 0,77.79 c 2.22,-25.48 4.5,-51.46 6.82,-77.79 l -6.82,0 z m 0,-193.18 0,144.88 11.1,0 c 4.16,-46.95 8.47,-95.17 12.93,-144.88 l -24.03,0 z m -179.1,1098.71 -57.19,0 c 26.39,210.56 46.67,390.39 57.19,567.68 l 0,-567.68 z m -18.12,-531.25 -106.38,0 c 22.3,181.37 43.07,339.53 61.24,482.95 l 45.14,0 0,-482.95 z m -18.95,2456.58 c 12.08,-0.35 24.44,-0.64 37.06,-0.88 l 0,-421.73 c -10.56,127.37 -22.82,266.84 -37.06,422.61 z m -60.68,2.25 c 7.9,-0.37 15.95,-0.72 24.2,-1.04 15.4,-168.31 28.49,-317.63 39.62,-453.08 -16.05,135.95 -37.11,285.6 -63.82,454.12 z m 547.19,146.95 17.91,53.46 -234.06,97.59 -26.52,0 0,10.05 -13.09,0 0,17.11 -11.71,0 41.56,39.24 -22.31,0 0,9.06 -11.56,0 0,31.19 -54.84,0 0,15.09 -21.62,0 0,30.18 -20.36,0 -11.34,278.71 -6.03,0 -11.35,-278.71 -20.35,0 0,-30.18 -21.63,0 0,-15.09 -54.84,0 0,-31.19 -11.57,0 0,-9.06 -22.31,0 41.56,-39.24 -11.7,0 0,-17.11 -13.08,0 0,-10.05 -26.53,0 -234.07,-97.59 17.92,-53.46 c -49.66,-5.84 -78.78,-11.58 -78.78,-14.96 0,-4.22 45.32,-9.41 119.41,-13.72 l 29.86,-76.28 c -36.46,-4.65 -57.72,-10.19 -57.72,-16.16 0,-9.77 57.02,-18.44 144.99,-23.84 76.23,-479.6 106.55,-804.13 106.55,-1097.57 0,-276.02 -26.82,-525.08 -67.86,-850.66 -19.51,-154.88 -42.25,-327.08 -66.79,-527.51 l -89.93,-27.35 -4.81,-64.39 52.93,-28.17 27.31,0 c -22.15,-186.26 -45.5,-396.09 -69.12,-636.89 l 36.4,0 c 22.89,233.14 45.52,437.09 67.06,618.79 l 124.86,0 0,-618.79 197.22,0 0,155.96 28.37,0 c 4.55,-50.49 9.25,-102.48 14.1,-155.96 l 36.36,0 c -4.85,53.48 -9.55,105.47 -14.09,155.96 l 104.56,0 c 5.2,-50.51 10.43,-102.48 15.67,-155.96 l 36.41,0 c -23.58,240.74 -46.9,450.55 -69.03,636.89 l 30.16,0 52.92,28.17 -4.82,64.39 -92.83,28.25 c -24.66,201.68 -47.51,374.87 -67.1,530.61 -41.01,325.79 -67.8,575.2 -67.8,851.42 0,292.67 30.1,616.08 105.71,1092.58 90.2,5.39 148.97,14.16 148.97,24.07 0,5.97 -21.26,11.51 -57.71,16.16 l 29.84,76.28 c 74.1,4.31 119.44,9.5 119.44,13.72 0,3.38 -29.12,9.12 -78.79,14.96" /><path
         id="path166"
         style="fill:#141613;fill-opacity:1;fill-rule:nonzero;stroke:none"
         d="m 5854.71,2776.14 c 24.44,27.61 38.31,59.25 38.31,92.87 0,107.57 -142.02,194.77 -317.21,194.77 -175.2,0 -317.23,-87.2 -317.23,-194.77 0,-33.62 13.89,-65.26 38.31,-92.87 l 557.82,0" /><path
         id="path168"
         style="fill:#57752b;fill-opacity:1;fill-rule:nonzero;stroke:none"
         d="m 100,2776.14 385.27,0 0,284.52 -385.27,0 0,-284.52 z" /><path
         id="path170"
         style="fill:#141613;fill-opacity:1;fill-rule:nonzero;stroke:none"
         d="m 1860.28,3473.53 0,48.95 -105.52,0 0,61.17 -162.12,0 0,-61.17 -105.53,0 0,-48.95 55.06,0 0,-28.52 -55.06,0 0,-48.95 55.06,0 0,-28.55 -55.06,0 0,-48.94 55.06,0 0,-28.56 -55.06,0 0,-48.94 55.06,0 0,-28.53 -55.06,0 0,-48.94 55.06,0 0,-28.55 -55.06,0 0,-48.95 55.06,0 0,-28.55 -55.06,0 0,-48.95 55.06,0 0,-28.52 -55.06,0 0,-48.95 55.06,0 0,-28.55 -55.06,0 0,-48.94 55.06,0 0,-28.56 -55.06,0 0,-48.94 373.17,0 0,48.94 -55.06,0 0,28.56 55.06,0 0,48.94 -55.06,0 0,28.55 55.06,0 0,48.95 -55.06,0 0,28.52 55.06,0 0,48.95 -55.06,0 0,28.55 55.06,0 0,48.95 -55.06,0 0,28.55 55.06,0 0,48.94 -55.06,0 0,28.53 55.06,0 0,48.94 -55.06,0 0,28.56 55.06,0 0,48.94 -55.06,0 0,28.55 55.06,0 0,48.95 -55.06,0 0,28.52 55.06,0" /><path
         id="path172"
         style="fill:#4590AF;fill-opacity:1;fill-rule:nonzero;stroke:none"
         d="m 2491.04,4300.39 0,20.74 -13.83,0 0,23.33 -34.56,0 0,-23.33 -39.74,0 0,33.85 -67.41,0 0,24.9 25.92,0 0,48.39 -34.56,0 0,34.56 -38.02,0 0,-34.56 -34.56,0 0,-48.39 25.92,0 0,-24.9 -67.4,0 0,-33.85 -39.75,0 0,21.6 -34.56,0 0,-21.6 -13.83,0 0,-20.74 -34.56,0 0,-1524.25 435.5,0 0,1524.25 -34.56,0" /><path
         id="path174"
         style="fill:#141613;fill-opacity:1;fill-rule:nonzero;stroke:none"
         d="m 2539.08,3241.97 0,21.72 -89.3,0 0,-21.72 -85.69,0 0,57.92 -164.12,0 0,-57.92 -85.68,0 0,21.72 -89.31,0 0,-21.72 -68.78,0 0,-465.83 651.67,0 0,465.83 -68.79,0" /><path
         id="path176"
         style="fill:#91a3b9;fill-opacity:1;fill-rule:nonzero;stroke:none"
         d="m 449.41,3969.63 0,116.45 455.801,0 0,-47.63 112.859,0 0,-1262.31 -672.859,0 0,1193.49 104.199,0" /><path
         id="path178"
         style="fill:#141613;fill-opacity:1;fill-rule:nonzero;stroke:none"
         d="m 3198.92,3813.04 0,27.66 -31.56,0 0,48.38 -94.66,0 0,34.57 36.9,0 0,41.47 -372.27,0 0,-41.47 36.91,0 0,-34.57 -94.67,0 0,-1112.94 519.35,0 0,27.66 -31.56,0 0,26.92 31.56,0 0,27.65 -31.56,0 0,26.91 31.56,0 0,27.67 -31.56,0 0,26.91 31.56,0 0,27.66 -31.56,0 0,26.91 31.56,0 0,27.66 -31.56,0 0,26.91 31.56,0 0,27.66 -31.56,0 0,26.95 31.56,0 0,27.65 -31.56,0 0,26.92 31.56,0 0,27.65 -31.56,0 0,26.92 31.56,0 0,27.65 -31.56,0 0,26.92 31.56,0 0,27.66 -31.56,0 0,26.92 31.56,0 0,27.64 -31.56,0 0,26.93 31.56,0 0,27.65 -31.56,0 0,26.91 31.56,0 0,27.66 -31.56,0 0,26.92 31.56,0 0,27.65 -31.56,0 0,26.93 31.56,0 0,27.64 -31.56,0 0,26.93 31.56,0 0,27.65 -31.56,0 0,26.92 31.56,0 0,27.65 -31.56,0 0,26.92 31.56,0 0,27.65 -31.56,0 0,26.92 31.56,0 0,27.66 -31.56,0 0,26.91 31.56,0" /><path
         id="path180"
         style="fill:#4590AF;fill-opacity:1;fill-rule:nonzero;stroke:none"
         d="m 4238.92,4787.73 0,44.93 -21,0 0,228.12 -24.2,0 0,248.86 -38.02,0 0,-203.04 -456.24,71.69 0,-117.51 -51.84,0 0,-2284.64 570.3,0 0,763.85 21,0 0,44.93 -21,0 0,24.39 21,0 0,44.93 -21,0 0,24.38 21,0 0,44.93 -21,0 0,24.41 21,0 0,44.93 -21,0 0,24.39 21,0 0,44.93 -21,0 0,24.38 21,0 0,44.94 -21,0 0,24.38 21,0 0,44.94 -21,0 0,24.37 21,0 0,44.93 -21,0 0,24.39 21,0 0,44.94 -21,0 0,24.38 21,0 0,44.93 -21,0 0,24.39 21,0 0,44.93 -21,0 0,24.38 21,0 0,44.93 -21,0 0,24.41 21,0 0,44.94 -21,0 0,24.38 21,0 0,44.93 -21,0 0,24.38 21,0 0,44.94 -21,0 0,24.38 21,0 0,44.93 -21,0 0,24.38 21,0 0,44.94 -21,0 0,24.39 21,0 0,44.92 -21,0 0,24.39 21,0" /><path
         id="path182"
         style="fill:#141613;fill-opacity:1;fill-rule:nonzero;stroke:none"
         d="m 4240.48,3075.85 0,29.52 -45.02,0 0,79.72 -65.71,0 0,100.39 -16.98,0 0,8.86 -30.99,0 0,-8.86 -15.5,0 0,66.43 -46.51,0 0,15.5 -31,0 0,-15.5 -62,0 0,124.02 -56.11,0 0,22.14 -25.09,0 0,-22.14 -47.99,0 0,31 -25.1,0 0,-31 -47.97,0 0,22.14 -25.11,0 0,-22.14 -56.1,0 0,-124.02 -61.99,0 0,9.59 -31.01,0 0,-9.59 -46.5,0 0,-66.43 -15.51,0 0,8.86 -31,0 0,-8.86 -16.98,0 0,-100.39 -65.7,0 0,-79.72 -45.03,0 0,-29.52 -13.28,0 0,-299.71 937.47,0 0,299.71 -13.29,0" /><path
         id="path184"
         style="fill:#4590AF;fill-opacity:1;fill-rule:nonzero;stroke:none"
         d="m 1298.74,4476.66 -77.77,0 0,27.64 -20.74,0 0,48.4 -10.37,0 0,-27.65 -120.97,0 0,-48.39 -133.07,0 0,-117.51 24.2,0 0,-1583.01 314.52,0 0,1583.01 24.2,0 0,117.51" /><path
         id="path186"
         style="fill:#141613;fill-opacity:1;fill-rule:nonzero;stroke:none"
         d="m 1364.36,3225.78 0,21.41 22.94,0 0,39.76 -195.76,0 0,-39.76 22.94,0 0,-21.41 -50.47,0 0,-449.64 250.82,0 0,449.64 -50.47,0" /><path
         id="path188"
         style="fill:#57752b;fill-opacity:1;fill-rule:nonzero;stroke:none"
         d="m 8325.74,2776.14 1402.4,0 0,697.18 -1402.4,0 0,-697.18 z" /><path
         id="path190"
         style="fill:#57752b;fill-opacity:1;fill-rule:nonzero;stroke:none"
         d="m 10639.1,2776.14 335.699,0 0,357.18 -335.699,0 0,-357.18 z" /><path
         id="path192"
         style="fill:#57752b;fill-opacity:1;fill-rule:nonzero;stroke:none"
         d="m 11279.1,2776.14 335.699,0 0,540 -335.699,0 0,-540 z" /><path
         id="path194"
         style="fill:#57752b;fill-opacity:1;fill-rule:nonzero;stroke:none"
         d="m 11862.1,2776.14 335.699,0 0,432.25 -335.699,0 0,-432.25 z" /><path
         id="path196"
         style="fill:#57752b;fill-opacity:1;fill-rule:nonzero;stroke:none"
         d="m 12432.3,2776.14 335.699,0 0,698.91 -335.699,0 0,-698.91 z" /><path
         id="path198"
         style="fill:#57752b;fill-opacity:1;fill-rule:nonzero;stroke:none"
         d="m 12692.3,2776.14 335.699,0 0,378.91 -335.699,0 0,-378.91 z" /><path
         id="path200"
         style="fill:#57752b;fill-opacity:1;fill-rule:nonzero;stroke:none"
         d="m 12959,2776.14 335.699,0 0,378.91 -335.699,0 0,-378.91 z" /><path
         id="path202"
         style="fill:#57752b;fill-opacity:1;fill-rule:nonzero;stroke:none"
         d="m 13837.5,2776.14 335.699,0 0,338.91 -335.699,0 0,-338.91 z" /><path
         id="path204"
         style="fill:#91a3b9;fill-opacity:1;fill-rule:nonzero;stroke:none"
         d="m 8810.56,4080.34 -26.44,83.74 -77.27,0 0,13.05 -57.61,0 0,-13.05 -198.22,0 -26.47,-83.74 -1.7,0 0,-1304.2 389.41,0 0,1304.2 -1.7,0" /><path
         id="path206"
         style="fill:#4590AF;fill-opacity:1;fill-rule:nonzero;stroke:none"
         d="m 9321.27,3683.99 0,57.61 -27.65,0 0,-57.61 -64.53,0 0,59.92 -41.47,0 0,59.9 -255.77,0 0,-59.9 -20.75,0 0,-59.92 -36.86,0 0,-907.85 486.2,0 0,907.85 -39.17,0" /><path
         id="path208"
         style="fill:#4590AF;fill-opacity:1;fill-rule:nonzero;stroke:none"
         d="m 8151.59,4722.07 78.8,0 0,-62.22 -78.8,0 0,62.22 z m 186.29,-165.91 0,103.69 -81.23,0 0,82.96 -131.34,0 0,-82.96 -81.21,0 0,-103.69 -50.14,0 0,-1780.02 394.03,0 0,1780.02 -50.11,0" /><path
         id="path210"
         style="fill:#141613;fill-opacity:1;fill-rule:nonzero;stroke:none"
         d="m 10279.5,3240.57 0,26.87 c 13.3,-5.13 26.4,-10.66 39,-16.78 15.6,-7.61 30.6,-16.13 44,-25.66 -22,5.15 -49.9,10.39 -83,15.57 z m -581.77,50.47 0,37.52 c 8.03,0.74 16.06,1.45 24.09,2.06 16,1.24 32.03,2.17 48.06,2.86 l 0,-45.65 c -6.4,0.34 -12.83,0.68 -19.29,1.02 -17.91,0.91 -35.53,1.64 -52.86,2.19 z m -83.09,1.15 0,25.97 c 23.93,3.84 48.01,6.92 72.15,9.36 l 0,-36.16 c -24.7,0.67 -48.76,0.95 -72.15,0.83 z m -94.05,6.4 0,-9.2 c -14.1,-0.8 -27.91,-1.77 -41.41,-2.92 13.65,4.47 27.46,8.48 41.41,12.12 z m 49.47,11.48 c 11.17,2.29 22.38,4.36 33.62,6.29 l 0,-24.23 c -24.81,-0.27 -48.88,-0.97 -72.14,-2.15 l 0,11.38 c 12.78,3.17 25.63,6.06 38.52,8.71 z m 282.93,24.85 0,-51.97 c -23.59,1.5 -47.66,2.93 -72.15,4.28 l 0,46.71 c 24.04,0.87 48.11,1.17 72.15,0.98 z m 83.1,-2.72 0,-55 c -23.47,1.76 -47.54,3.44 -72.14,5.04 l 0,52.54 c 3.68,-0.05 7.36,-0.08 11.03,-0.16 20.4,-0.42 40.77,-1.24 61.11,-2.42 z m 94.11,-8.22 c 24.1,-2.85 48.2,-6.24 72.1,-10.32 l 0,-50.98 c -23.1,2.36 -47.2,4.64 -72.1,6.86 l 0,54.44 z m -11,-53.47 c -23.32,2.03 -47.4,3.98 -72.15,5.87 l 0,55.16 c 24.12,-1.54 48.17,-3.65 72.15,-6.32 l 0,-54.71 z m 166.2,25.89 0,-42.95 c -22.7,2.76 -46.8,5.46 -72.1,8.1 l 0,50.18 c 21.5,-3.86 42.9,-8.25 64,-13.31 2.7,-0.66 5.4,-1.35 8.1,-2.02 z m 83.1,-24.81 0,-29.33 c -22,3.31 -46.1,6.62 -72.1,9.86 l 0,41.53 c 24.4,-6.34 48.7,-13.55 72.1,-22.06 z m -1116.37,-253.45 -22.73,0 0,36.77 c 8.73,-2.75 18.85,-5.05 30.27,-6.93 l -7.54,-29.84 z m -33.67,0 -10.96,0 0,46.6 c 3.19,-2.09 6.82,-4.04 10.96,-5.81 l 0,-40.79 z m 1395.24,28.17 0,-28.17 -25.1,0 0,32.35 -31.3,0 0,136.06 73,7.89 -73,33.55 0,22.78 -42.6,0 c -0.9,0.77 -49.8,34.69 -74.7,45.96 -24.9,11.15 -50.2,20.02 -75.7,27.6 -25.5,7.55 -51.3,13.81 -77.1,18.95 -103.4,20.5 -208.1,26.94 -312.22,24.96 -104.08,-2.31 -208.08,-13.13 -309.65,-36.61 -25.37,-5.95 -50.54,-12.82 -75.37,-20.97 -24.82,-8.11 -49.39,-17.3 -73.14,-28.66 -2.31,-1.11 -4.6,-2.26 -6.9,-3.4 -167.87,-24.22 -278.06,-81.3 -314.94,-175.97 -4.25,-10.9 -3.53,-20.02 1.56,-27.61 l 0,-56.88 -64.14,0 0,-242 1531.3,0 0,270.17 -50,0" /><path
         id="path212"
         style="fill:#141613;fill-opacity:1;fill-rule:nonzero;stroke:none"
         d="m 8864.41,2776.14 0,243.39 -0.11,0 0.11,1.87 c 0,60.73 -126.21,109.95 -281.91,109.95 -8.35,0 -16.61,-0.17 -24.79,-0.44 l 2.24,89.72 -292.25,-46.98 0,-38.54 -93.98,0 0,-29.12 -367.43,0 0,-329.85 1058.12,0" /><path
         id="path214"
         style="fill:#4590AF;fill-opacity:1;fill-rule:nonzero;stroke:none"
         d="m 11357,3720.47 0,10.81 -123.6,0 0,38.64 -85,0 0,34.01 -3.7,0 0,89.62 -18.6,0 0,-89.62 -76.6,0 0,-34.01 -85,0 0,-38.64 -123.7,0 0,-10.81 23.2,0 0,-52.55 -23.2,0 0,-15.22 23.2,0 0,-52.55 -23.2,0 0,-15.21 23.2,0 0,-52.56 -23.2,0 0,-15.2 23.2,0 0,-52.55 -23.2,0 0,-15.22 23.2,0 0,-52.54 -23.2,0 0,-15.22 23.2,0 0,-52.55 -23.2,0 0,-15.24 23.2,0 0,-52.53 -23.2,0 0,-15.22 23.2,0 0,-52.55 -23.2,0 0,-15.21 23.2,0 0,-52.54 -23.2,0 0,-15.23 23.2,0 0,-52.55 -23.2,0 0,-15.21 23.2,0 0,-52.54 -23.2,0 0,-15.23 23.2,0 0,-52.55 -23.2,0 0,-15.22 23.2,0 0,-52.54 -23.2,0 0,-15.23 23.2,0 0,-52.55 -23.2,0 0,-10.82 516.2,0 0,10.82 -23.2,0 0,52.55 23.2,0 0,15.23 -23.2,0 0,52.54 23.2,0 0,15.22 -23.2,0 0,52.55 23.2,0 0,15.23 -23.2,0 0,52.54 23.2,0 0,15.21 -23.2,0 0,52.55 23.2,0 0,15.23 -23.2,0 0,52.54 23.2,0 0,15.21 -23.2,0 0,52.55 23.2,0 0,15.22 -23.2,0 0,52.53 23.2,0 0,15.24 -23.2,0 0,52.55 23.2,0 0,15.22 -23.2,0 0,52.54 23.2,0 0,15.22 -23.2,0 0,52.55 23.2,0 0,15.2 -23.2,0 0,52.56 23.2,0 0,15.21 -23.2,0 0,52.55 23.2,0 0,15.22 -23.2,0 0,52.55 23.2,0" /><path
         id="path216"
         style="fill:#4590AF;fill-opacity:1;fill-rule:nonzero;stroke:none"
         d="m 11938,3720.47 0,10.81 -45.6,0 0,97.37 -30.9,0 0,-68.01 -61.8,0 0,-29.36 -19.3,0 0,41.73 -200.9,0 0,-41.73 -19.4,0 0,35.55 -61.8,0 0,68 -30.9,0 0,-103.55 -45.6,0 0,-10.81 23.2,0 0,-52.55 -23.2,0 0,-15.22 23.2,0 0,-52.55 -23.2,0 0,-15.21 23.2,0 0,-52.56 -23.2,0 0,-15.2 23.2,0 0,-52.55 -23.2,0 0,-15.22 23.2,0 0,-52.54 -23.2,0 0,-15.22 23.2,0 0,-52.55 -23.2,0 0,-15.24 23.2,0 0,-52.53 -23.2,0 0,-15.22 23.2,0 0,-52.55 -23.2,0 0,-15.21 23.2,0 0,-52.54 -23.2,0 0,-15.23 23.2,0 0,-52.55 -23.2,0 0,-15.21 23.2,0 0,-52.54 -23.2,0 0,-15.23 23.2,0 0,-52.55 -23.2,0 0,-15.22 23.2,0 0,-52.54 -23.2,0 0,-15.23 23.2,0 0,-52.55 -23.2,0 0,-10.82 516.2,0 0,10.82 -23.2,0 0,52.55 23.2,0 0,15.23 -23.2,0 0,52.54 23.2,0 0,15.22 -23.2,0 0,52.55 23.2,0 0,15.23 -23.2,0 0,52.54 23.2,0 0,15.21 -23.2,0 0,52.55 23.2,0 0,15.23 -23.2,0 0,52.54 23.2,0 0,15.21 -23.2,0 0,52.55 23.2,0 0,15.22 -23.2,0 0,52.53 23.2,0 0,15.24 -23.2,0 0,52.55 23.2,0 0,15.22 -23.2,0 0,52.54 23.2,0 0,15.22 -23.2,0 0,52.55 23.2,0 0,15.2 -23.2,0 0,52.56 23.2,0 0,15.21 -23.2,0 0,52.55 23.2,0 0,15.22 -23.2,0 0,52.55 23.2,0" /><path
         id="path218"
         style="fill:#4590AF;fill-opacity:1;fill-rule:nonzero;stroke:none"
         d="m 12512.5,3655.54 0,34.02 -58.8,0 0,33.99 30.9,0 0,37.1 -132.9,0 0,54.25 -21.6,0 0,32.29 -55.7,0 0,21.64 -4.6,0 0,9.27 -12.4,0 0,37.09 -24.7,0 0,-37.09 -12.3,0 0,-9.27 -4.7,0 0,-21.64 -55.6,0 0,-32.29 -21.7,0 0,-54.25 -132.9,0 0,-37.1 30.9,0 0,-33.99 -58.7,0 0,-34.02 32.5,0 0,-45.35 -23.2,0 0,-14.22 23.2,0 0,-49.15 -23.2,0 0,-14.23 23.2,0 0,-49.15 -23.2,0 0,-14.22 23.2,0 0,-49.15 -23.2,0 0,-14.24 23.2,0 0,-49.14 -23.2,0 0,-14.23 23.2,0 0,-49.15 -23.2,0 0,-14.24 23.2,0 0,-49.15 -23.2,0 0,-14.21 23.2,0 0,-49.16 -23.2,0 0,-14.25 23.2,0 0,-49.13 -23.2,0 0,-14.24 23.2,0 0,-49.15 -23.2,0 0,-14.24 23.2,0 0,-49.14 -23.2,0 0,-14.22 23.2,0 0,-49.15 -23.2,0 0,-14.22 23.2,0 0,-49.16 -23.2,0 0,-14.23 23.2,0 0,-49.15 -23.2,0 0,-10.13 516.2,0 0,10.13 -23.2,0 0,49.15 23.2,0 0,14.23 -23.2,0 0,49.16 23.2,0 0,14.22 -23.2,0 0,49.15 23.2,0 0,14.22 -23.2,0 0,49.14 23.2,0 0,14.24 -23.2,0 0,49.15 23.2,0 0,14.24 -23.2,0 0,49.13 23.2,0 0,14.25 -23.2,0 0,49.16 23.2,0 0,14.21 -23.2,0 0,49.15 23.2,0 0,14.24 -23.2,0 0,49.15 23.2,0 0,14.23 -23.2,0 0,49.14 23.2,0 0,14.24 -23.2,0 0,49.15 23.2,0 0,14.22 -23.2,0 0,49.15 23.2,0 0,14.23 -23.2,0 0,49.15 23.2,0 0,14.22 -23.2,0 0,45.35 32.5,0" /><path
         id="path220"
         style="fill:#4590AF;fill-opacity:1;fill-rule:nonzero;stroke:none"
         d="m 13808.9,3985.85 -24.2,0 0,86.42 24.2,0 0,-86.42 z m 0,-97.64 -24.2,0 0,86.41 24.2,0 0,-86.41 z m 0,-97.64 -24.2,0 0,86.41 24.2,0 0,-86.41 z m 0,-97.63 -24.2,0 0,86.4 24.2,0 0,-86.4 z m 0,-97.66 -24.2,0 0,86.43 24.2,0 0,-86.43 z m 0,-97.64 -24.2,0 0,86.41 24.2,0 0,-86.41 z m 0,-97.63 -24.2,0 0,86.4 24.2,0 0,-86.4 z m 0,-97.64 -24.2,0 0,86.41 24.2,0 0,-86.41 z m 0,-97.65 -24.2,0 0,86.42 24.2,0 0,-86.42 z m 0,-97.64 -24.2,0 0,86.41 24.2,0 0,-86.41 z m 0,-97.64 -24.2,0 0,86.41 24.2,0 0,-86.41 z m 0,-97.65 -24.2,0 0,86.42 24.2,0 0,-86.42 z m 0,-97.63 -24.2,0 0,86.4 24.2,0 0,-86.4 z m -470.1,1171.69 -24.2,0 0,86.42 24.2,0 0,-86.42 z m 0,-97.64 -24.2,0 0,86.41 24.2,0 0,-86.41 z m 0,-97.64 -24.2,0 0,86.41 24.2,0 0,-86.41 z m 0,-97.63 -24.2,0 0,86.4 24.2,0 0,-86.4 z m 0,-97.66 -24.2,0 0,86.43 24.2,0 0,-86.43 z m 0,-97.64 -24.2,0 0,86.41 24.2,0 0,-86.41 z m 0,-97.63 -24.2,0 0,86.4 24.2,0 0,-86.4 z m 0,-97.64 -24.2,0 0,86.41 24.2,0 0,-86.41 z m 0,-97.65 -24.2,0 0,86.42 24.2,0 0,-86.42 z m 0,-97.64 -24.2,0 0,86.41 24.2,0 0,-86.41 z m 0,-97.64 -24.2,0 0,86.41 24.2,0 0,-86.41 z m 0,-97.65 -24.2,0 0,86.42 24.2,0 0,-86.42 z m 0,-97.63 -24.2,0 0,86.4 24.2,0 0,-86.4 z m 385.4,1292.66 0,31.12 -69.1,0 0,31.11 -76.1,0 0,-31.11 -34.5,0 0,31.11 -76.1,0 0,-31.11 -69.1,0 0,-31.12 -115.8,0 0,-1330.68 556.5,0 0,1330.68 -115.8,0" /><path
         id="path222"
         style="fill:#141613;fill-opacity:1;fill-rule:nonzero;stroke:none"
         d="m 10755.8,2776.14 c -3,6.92 -4.7,14.48 -4.5,22.44 0.5,27.54 10.3,54.57 29.6,73.54 11.1,68.46 94.8,117.99 162.1,102.6 12.5,11.69 26.8,20.9 43.5,25.19 21.6,5.55 41.4,1.41 61.2,-7.78 15.7,-7.32 26.3,-21.91 33.7,-37.18 43.6,46.5 109.2,78.08 167.4,55.08 33.2,14.36 69.1,25.46 104.6,15.43 39.3,-11.04 57.5,-44.65 64.3,-81.07 38.5,0.42 75.9,-9.64 100.5,-37.2 11.3,7 23.6,12.74 36.1,17.85 6.6,32.77 19.6,62.35 49.8,82.86 30.2,20.61 68.2,13.13 100.1,-1.49 2.6,2.07 5.3,4.07 8.1,5.91 29.2,19.19 72.5,20.14 100.9,-1.32 35.5,-26.92 45.4,-66.08 37.2,-108.52 9.4,-4.71 17.6,-11.85 22.5,-21.68 16.7,-32.89 22.2,-74.02 1.5,-104.66 l -1118.6,0" /><path
         id="path224"
         style="fill:#141613;fill-opacity:1;fill-rule:nonzero;stroke:none"
         d="m 13988.3,2776.14 -1011.5,0 c -1.2,1.85 -2.7,3.58 -3.8,5.58 -26.6,23.74 -35.2,65.1 -23.5,103.4 16.9,55.36 67.2,109.4 129.9,108.88 2.8,-0.06 5.3,-0.53 7.9,-0.86 36.7,14.07 77.2,11.86 115.2,2.31 17.4,-4.42 28.6,-14.26 34.6,-26.26 7,12.46 18.6,22.36 33.5,26.26 21.3,5.54 45.5,7.56 66.7,0.42 3.9,-1.32 7.7,-2.87 11.2,-4.59 15.2,22.63 36.7,40.52 65.3,45.08 4.4,0.72 8.7,0.93 13,0.9 33.7,19.89 74.8,21.85 110.4,0.42 13,-7.83 22,-20.06 25.7,-33.63 11.8,-4.56 20.8,-9.35 30.7,-18.41 6.7,-6.1 12,-14.13 16.1,-22.13 5.4,-10.56 8.2,-21.34 7.2,-32.68 6,7.34 13.2,14.15 21.7,20.47 9.8,7.16 22.4,11.54 35.4,13.86 1.6,17.47 5.8,34.53 14.8,50.04 15.5,26.74 47.6,42.65 78.7,40.16 28.2,-2.2 52,-20.27 55.2,-48.13 25.6,2.14 51.8,-2.96 74.5,-14.69 30.1,-15.61 45.1,-42.33 48,-71.2 20.1,-6.87 38.1,-20.39 49.4,-37.53 18.8,-28.71 17.2,-63.95 2.8,-93.76 -2.5,-5.24 -5.6,-9.8 -9.1,-13.91" /><path
         id="path226"
         style="fill:#141613;fill-opacity:1;fill-rule:nonzero;stroke:none"
         d="m 12172.4,2776.14 811.6,0 c 8.1,6.52 15.3,15.2 21.5,26.05 19.3,33.98 -17.1,63.73 -43.4,50.29 7.7,3.91 -10.8,21 -24.4,31.4 -2.5,7.74 -5.5,15.22 -9.2,22.33 -15.1,28.95 -46.5,47.79 -73.4,26.64 -2.3,-1.83 -4.3,-3.99 -6.2,-6.3 -4.1,4.65 -8.3,9.08 -13.2,13.03 -7,5.71 -14.7,8.61 -22.4,9.24 -10.5,11.46 -24.2,18.08 -39.5,18.14 -19.7,0.07 -37.3,-11.91 -51.9,-26.05 -7,-6.87 -9.7,-17.36 -9,-27.7 l -2,0.08 c -13.1,17.67 -28.5,31.49 -47.8,30.27 -14.7,8.94 -30.8,13.38 -50,9.09 l -1.6,-0.6 c -6.8,13.81 -23.2,20.77 -36,16.69 -8.6,-2.77 -14.7,-8.78 -18.4,-16.47 -27.1,19.71 -63.1,14.9 -89.8,-5.79 -14.6,26.28 -37.5,47.23 -61.2,54.42 -17.8,5.39 -31,-6.1 -36.5,-21.44 -6,2.52 -12.4,4.09 -19.5,4.37 -14.5,0.56 -26.9,-12.11 -30.5,-27.75 -31.2,24.91 -79.4,22.41 -96,-18.36 -2.2,-0.13 -4.4,-0.48 -6.7,-1.14 -39,-11.42 -46.5,-56.44 -34.2,-93.64 l -0.7,-1.54 c -26.5,-3.45 -29.5,-46.59 -9.6,-65.26" /><path
         id="path228"
         style="fill:#141613;fill-opacity:1;fill-rule:nonzero;stroke:none"
         d="m 4282.44,2776.14 811.52,0 c 8.09,6.52 15.33,15.2 21.5,26.05 19.3,33.98 -17.05,63.73 -43.36,50.29 7.69,3.91 -10.8,21 -24.36,31.4 -2.5,7.74 -5.56,15.22 -9.26,22.33 -15.12,28.95 -46.47,47.79 -73.36,26.64 -2.34,-1.83 -4.36,-3.99 -6.23,-6.3 -4.06,4.65 -8.33,9.08 -13.15,13.03 -7.02,5.71 -14.71,8.61 -22.44,9.24 -10.53,11.46 -24.19,18.08 -39.55,18.14 -19.65,0.07 -37.27,-11.91 -51.82,-26.05 -7.04,-6.87 -9.69,-17.36 -9.01,-27.7 l -2.01,0.08 c -13.13,17.67 -28.5,31.49 -47.82,30.27 -14.69,8.94 -30.8,13.38 -49.99,9.09 l -1.59,-0.6 c -6.82,13.81 -23.2,20.77 -36.04,16.69 -8.59,-2.77 -14.66,-8.78 -18.38,-16.47 -27.04,19.71 -63.05,14.9 -89.77,-5.79 -14.58,26.28 -37.51,47.23 -61.23,54.42 -17.84,5.39 -30.99,-6.1 -36.48,-21.44 -5.98,2.52 -12.42,4.09 -19.46,4.37 -14.55,0.56 -26.96,-12.11 -30.55,-27.75 -31.24,24.91 -79.43,22.41 -96,-18.36 -2.15,-0.13 -4.36,-0.48 -6.68,-1.14 -38.97,-11.42 -46.5,-56.44 -34.21,-93.64 l -0.72,-1.54 c -26.49,-3.45 -29.48,-46.59 -9.55,-65.26" /><path
         id="path230"
         style="fill:#141613;fill-opacity:1;fill-rule:nonzero;stroke:none"
         d="m 750.43,3840.7 0,41.48 -31.106,0 0,124.43 -172.816,0 0,-124.43 -31.11,0 0,-41.48 -32.832,0 0,-1064.56 300.7,0 0,1064.56 -32.836,0" /><path
         id="path232"
         style="fill:#141613;fill-opacity:1;fill-rule:nonzero;stroke:none"
         d="m 1101.24,3578.03 0,51.83 -19.6,0 0,21.91 -11.52,0 0,-21.91 -16.13,0 0,21.91 -11.52,0 0,-21.91 -16.13,0 0,21.91 -11.52,0 0,-21.91 -16.129,0 0,21.91 -11.523,0 0,-21.91 -16.129,0 0,21.91 -11.512,0 0,-21.91 -103.703,0 0,-51.83 -10.371,0 0,-801.89 273.067,0 0,801.89 -17.28,0" /><path
         id="path234"
         style="fill:#141613;fill-opacity:1;fill-rule:nonzero;stroke:none"
         d="m 0.00390625,2534.65 14173.20009375,0 0,246.543 -14173.20009375,0 0,-246.543 z" /></g></g></svg>
